%TF.GenerationSoftware,KiCad,Pcbnew,(6.0.0)*%
%TF.CreationDate,2023-02-03T10:22:37+01:00*%
%TF.ProjectId,boneIO - input WT32,626f6e65-494f-4202-9d20-696e70757420,rev?*%
%TF.SameCoordinates,Original*%
%TF.FileFunction,Legend,Bot*%
%TF.FilePolarity,Positive*%
%FSLAX46Y46*%
G04 Gerber Fmt 4.6, Leading zero omitted, Abs format (unit mm)*
G04 Created by KiCad (PCBNEW (6.0.0)) date 2023-02-03 10:22:37*
%MOMM*%
%LPD*%
G01*
G04 APERTURE LIST*
%ADD10C,0.100000*%
%ADD11C,0.150000*%
%ADD12C,0.127000*%
%ADD13C,0.120000*%
G04 APERTURE END LIST*
D10*
X234648095Y-96641428D02*
X235029047Y-96908095D01*
X234648095Y-97098571D02*
X235448095Y-97098571D01*
X235448095Y-96793809D01*
X235410000Y-96717618D01*
X235371904Y-96679523D01*
X235295714Y-96641428D01*
X235181428Y-96641428D01*
X235105238Y-96679523D01*
X235067142Y-96717618D01*
X235029047Y-96793809D01*
X235029047Y-97098571D01*
X235448095Y-96374761D02*
X234648095Y-95841428D01*
X235448095Y-95841428D02*
X234648095Y-96374761D01*
X233438095Y-97212856D02*
X233438095Y-96755713D01*
X232638095Y-96984285D02*
X233438095Y-96984285D01*
X233438095Y-96565237D02*
X232638095Y-96031904D01*
X233438095Y-96031904D02*
X232638095Y-96565237D01*
X243430000Y-96679523D02*
X243468095Y-96755714D01*
X243468095Y-96870000D01*
X243430000Y-96984285D01*
X243353809Y-97060476D01*
X243277619Y-97098571D01*
X243125238Y-97136666D01*
X243010952Y-97136666D01*
X242858571Y-97098571D01*
X242782380Y-97060476D01*
X242706190Y-96984285D01*
X242668095Y-96870000D01*
X242668095Y-96793809D01*
X242706190Y-96679523D01*
X242744285Y-96641428D01*
X243010952Y-96641428D01*
X243010952Y-96793809D01*
X242668095Y-96298571D02*
X243468095Y-96298571D01*
X242668095Y-95841428D01*
X243468095Y-95841428D01*
X242668095Y-95460476D02*
X243468095Y-95460476D01*
X243468095Y-95270000D01*
X243430000Y-95155714D01*
X243353809Y-95079523D01*
X243277619Y-95041428D01*
X243125238Y-95003333D01*
X243010952Y-95003333D01*
X242858571Y-95041428D01*
X242782380Y-95079523D01*
X242706190Y-95155714D01*
X242668095Y-95270000D01*
X242668095Y-95460476D01*
X236688095Y-96641429D02*
X237069047Y-96908095D01*
X236688095Y-97098571D02*
X237488095Y-97098571D01*
X237488095Y-96793810D01*
X237450000Y-96717619D01*
X237411904Y-96679524D01*
X237335714Y-96641429D01*
X237221428Y-96641429D01*
X237145238Y-96679524D01*
X237107142Y-96717619D01*
X237069047Y-96793810D01*
X237069047Y-97098571D01*
X237107142Y-96298571D02*
X237107142Y-96031905D01*
X236688095Y-95917619D02*
X236688095Y-96298571D01*
X237488095Y-96298571D01*
X237488095Y-95917619D01*
X236726190Y-95612857D02*
X236688095Y-95498571D01*
X236688095Y-95308095D01*
X236726190Y-95231905D01*
X236764285Y-95193810D01*
X236840476Y-95155714D01*
X236916666Y-95155714D01*
X236992857Y-95193810D01*
X237030952Y-95231905D01*
X237069047Y-95308095D01*
X237107142Y-95460476D01*
X237145238Y-95536667D01*
X237183333Y-95574762D01*
X237259523Y-95612857D01*
X237335714Y-95612857D01*
X237411904Y-95574762D01*
X237450000Y-95536667D01*
X237488095Y-95460476D01*
X237488095Y-95270000D01*
X237450000Y-95155714D01*
X238708095Y-97098572D02*
X239508095Y-97098572D01*
X239508095Y-96565238D02*
X239508095Y-96412857D01*
X239470000Y-96336667D01*
X239393809Y-96260476D01*
X239241428Y-96222381D01*
X238974761Y-96222381D01*
X238822380Y-96260476D01*
X238746190Y-96336667D01*
X238708095Y-96412857D01*
X238708095Y-96565238D01*
X238746190Y-96641429D01*
X238822380Y-96717619D01*
X238974761Y-96755714D01*
X239241428Y-96755714D01*
X239393809Y-96717619D01*
X239470000Y-96641429D01*
X239508095Y-96565238D01*
X239508095Y-95727143D02*
X239508095Y-95650952D01*
X239470000Y-95574762D01*
X239431904Y-95536667D01*
X239355714Y-95498572D01*
X239203333Y-95460476D01*
X239012857Y-95460476D01*
X238860476Y-95498572D01*
X238784285Y-95536667D01*
X238746190Y-95574762D01*
X238708095Y-95650952D01*
X238708095Y-95727143D01*
X238746190Y-95803333D01*
X238784285Y-95841429D01*
X238860476Y-95879524D01*
X239012857Y-95917619D01*
X239203333Y-95917619D01*
X239355714Y-95879524D01*
X239431904Y-95841429D01*
X239470000Y-95803333D01*
X239508095Y-95727143D01*
X241062857Y-97098571D02*
X241062857Y-96489047D01*
X240758095Y-96793809D02*
X241367619Y-96793809D01*
X241558095Y-95727142D02*
X241558095Y-96108095D01*
X241177142Y-96146190D01*
X241215238Y-96108095D01*
X241253333Y-96031904D01*
X241253333Y-95841428D01*
X241215238Y-95765238D01*
X241177142Y-95727142D01*
X241100952Y-95689047D01*
X240910476Y-95689047D01*
X240834285Y-95727142D01*
X240796190Y-95765238D01*
X240758095Y-95841428D01*
X240758095Y-96031904D01*
X240796190Y-96108095D01*
X240834285Y-96146190D01*
X241558095Y-95460476D02*
X240758095Y-95193809D01*
X241558095Y-94927142D01*
D11*
%TO.C,BT1*%
X243549714Y-77164571D02*
X243406857Y-77212190D01*
X243359238Y-77259809D01*
X243311619Y-77355047D01*
X243311619Y-77497904D01*
X243359238Y-77593142D01*
X243406857Y-77640761D01*
X243502095Y-77688380D01*
X243883047Y-77688380D01*
X243883047Y-76688380D01*
X243549714Y-76688380D01*
X243454476Y-76736000D01*
X243406857Y-76783619D01*
X243359238Y-76878857D01*
X243359238Y-76974095D01*
X243406857Y-77069333D01*
X243454476Y-77116952D01*
X243549714Y-77164571D01*
X243883047Y-77164571D01*
X243025904Y-76688380D02*
X242454476Y-76688380D01*
X242740190Y-77688380D02*
X242740190Y-76688380D01*
X241597333Y-77688380D02*
X242168761Y-77688380D01*
X241883047Y-77688380D02*
X241883047Y-76688380D01*
X241978285Y-76831238D01*
X242073523Y-76926476D01*
X242168761Y-76974095D01*
X249786666Y-86590000D02*
X248933333Y-86590000D01*
X228034761Y-86617142D02*
X227425238Y-86617142D01*
X227730000Y-86921904D02*
X227730000Y-86312380D01*
D10*
%TO.C,J3*%
X230811904Y-98168333D02*
X231383333Y-98168333D01*
X231497619Y-98130238D01*
X231573809Y-98054047D01*
X231611904Y-97939761D01*
X231611904Y-97863571D01*
X230811904Y-98473095D02*
X230811904Y-98968333D01*
X231116666Y-98701666D01*
X231116666Y-98815952D01*
X231154761Y-98892142D01*
X231192857Y-98930238D01*
X231269047Y-98968333D01*
X231459523Y-98968333D01*
X231535714Y-98930238D01*
X231573809Y-98892142D01*
X231611904Y-98815952D01*
X231611904Y-98587380D01*
X231573809Y-98511190D01*
X231535714Y-98473095D01*
D11*
%TO.C,U16*%
X215477380Y-106233095D02*
X216286904Y-106233095D01*
X216382142Y-106280714D01*
X216429761Y-106328333D01*
X216477380Y-106423571D01*
X216477380Y-106614048D01*
X216429761Y-106709286D01*
X216382142Y-106756905D01*
X216286904Y-106804524D01*
X215477380Y-106804524D01*
X216477380Y-107804524D02*
X216477380Y-107233095D01*
X216477380Y-107518810D02*
X215477380Y-107518810D01*
X215620238Y-107423571D01*
X215715476Y-107328333D01*
X215763095Y-107233095D01*
X215477380Y-108661667D02*
X215477380Y-108471191D01*
X215525000Y-108375952D01*
X215572619Y-108328333D01*
X215715476Y-108233095D01*
X215905952Y-108185476D01*
X216286904Y-108185476D01*
X216382142Y-108233095D01*
X216429761Y-108280714D01*
X216477380Y-108375952D01*
X216477380Y-108566429D01*
X216429761Y-108661667D01*
X216382142Y-108709286D01*
X216286904Y-108756905D01*
X216048809Y-108756905D01*
X215953571Y-108709286D01*
X215905952Y-108661667D01*
X215858333Y-108566429D01*
X215858333Y-108375952D01*
X215905952Y-108280714D01*
X215953571Y-108233095D01*
X216048809Y-108185476D01*
%TO.C,J6*%
X140822380Y-83486666D02*
X141536666Y-83486666D01*
X141679523Y-83439047D01*
X141774761Y-83343809D01*
X141822380Y-83200952D01*
X141822380Y-83105714D01*
X140822380Y-84391428D02*
X140822380Y-84200952D01*
X140870000Y-84105714D01*
X140917619Y-84058095D01*
X141060476Y-83962857D01*
X141250952Y-83915238D01*
X141631904Y-83915238D01*
X141727142Y-83962857D01*
X141774761Y-84010476D01*
X141822380Y-84105714D01*
X141822380Y-84296190D01*
X141774761Y-84391428D01*
X141727142Y-84439047D01*
X141631904Y-84486666D01*
X141393809Y-84486666D01*
X141298571Y-84439047D01*
X141250952Y-84391428D01*
X141203333Y-84296190D01*
X141203333Y-84105714D01*
X141250952Y-84010476D01*
X141298571Y-83962857D01*
X141393809Y-83915238D01*
D12*
%TO.C,BT1*%
X230920000Y-84290000D02*
X230920000Y-78790000D01*
X236120000Y-78790000D02*
X230920000Y-78790000D01*
X230920000Y-87690000D02*
X230920000Y-93190000D01*
X236120000Y-93190000D02*
X230920000Y-93190000D01*
X245519999Y-84290000D02*
G75*
G03*
X236120000Y-78790000I-7309652J-1710133D01*
G01*
X236120000Y-93190000D02*
G75*
G03*
X245520000Y-87690000I2090347J7210133D01*
G01*
D13*
%TO.C,J3*%
X244085000Y-99510000D02*
X244085000Y-98450000D01*
X242025000Y-97390000D02*
X231965000Y-97390000D01*
X243025000Y-99510000D02*
X244085000Y-99510000D01*
X242025000Y-99510000D02*
X231965000Y-99510000D01*
X231965000Y-99510000D02*
X231965000Y-97390000D01*
X242025000Y-99510000D02*
X242025000Y-97390000D01*
%TO.C,U16*%
X214360000Y-107390000D02*
X199140000Y-107390000D01*
X199140000Y-107390000D02*
X199140000Y-64590000D01*
X214360000Y-64590000D02*
X199140000Y-64590000D01*
X214360000Y-107390000D02*
X214360000Y-64590000D01*
%TO.C,J6*%
X145020000Y-83040000D02*
X152700000Y-83040000D01*
X145020000Y-85640000D02*
X142420000Y-85640000D01*
X143750000Y-83040000D02*
X142420000Y-83040000D01*
X145020000Y-83040000D02*
X145020000Y-85640000D01*
X142420000Y-88240000D02*
X152700000Y-88240000D01*
X152700000Y-83040000D02*
X152700000Y-88240000D01*
X142420000Y-85640000D02*
X142420000Y-88240000D01*
X142420000Y-83040000D02*
X142420000Y-84370000D01*
%TD*%
M02*
