M48
; DRILL file {KiCad (6.0.0)} date Fri Feb  3 10:22:31 2023
; FORMAT={-:-/ absolute / inch / decimal}
; #@! TF.CreationDate,2023-02-03T10:22:31+01:00
; #@! TF.GenerationSoftware,Kicad,Pcbnew,(6.0.0)
; #@! TF.FileFunction,Plated,1,2,PTH
FMAT,2
INCH
; #@! TA.AperFunction,Plated,PTH,ViaDrill
T1C0.0118
; #@! TA.AperFunction,Plated,PTH,ViaDrill
T2C0.0157
; #@! TA.AperFunction,Plated,PTH,ComponentDrill
T3C0.0197
; #@! TA.AperFunction,Plated,PTH,ComponentDrill
T4C0.0236
; #@! TA.AperFunction,Plated,PTH,ComponentDrill
T5C0.0300
; #@! TA.AperFunction,Plated,PTH,ComponentDrill
T6C0.0315
; #@! TA.AperFunction,Plated,PTH,ComponentDrill
T7C0.0354
; #@! TA.AperFunction,Plated,PTH,ComponentDrill
T8C0.0394
; #@! TA.AperFunction,Plated,PTH,ComponentDrill
T9C0.0433
; #@! TA.AperFunction,Plated,PTH,ComponentDrill
T10C0.0551
%
G90
G05
T1
X2.1909Y-3.7291
X2.1909Y-3.7866
X2.228Y-4.0122
X2.2299Y-4.0906
X2.2406Y-3.7839
X2.2409Y-3.7307
X2.2949Y-3.7307
X2.2961Y-4.2118
X2.2976Y-3.7831
X2.3063Y-3.6713
X2.3087Y-3.5768
X2.3134Y-4.0122
X2.3157Y-4.0843
X2.3224Y-2.937
X2.328Y-4.5953
X2.3386Y-3.824
X2.3394Y-3.9217
X2.3642Y-4.4449
X2.3703Y-2.8474
X2.4252Y-4.5937
X2.4791Y-3.5728
X2.4803Y-3.3701
X2.5031Y-2.763
X2.5071Y-2.9366
X2.524Y-2.6724
X2.5246Y-3.7254
X2.526Y-2.5803
X2.5291Y-3.5724
X2.5335Y-4.5984
X2.5531Y-3.7746
X2.5795Y-3.5728
X2.5876Y-3.7274
X2.6114Y-3.122
X2.6118Y-3.0866
X2.6197Y-4.4039
X2.6197Y-4.6283
X2.6213Y-4.5043
X2.6287Y-3.5717
X2.6406Y-2.3728
X2.6406Y-2.4283
X2.6417Y-2.3236
X2.6484Y-3.1831
X2.6506Y-3.7264
X2.661Y-2.9012
X2.6827Y-2.3244
X2.6827Y-2.3724
X2.6827Y-2.4272
X2.687Y-3.1827
X2.7236Y-2.4268
X2.7244Y-2.3244
X2.7244Y-2.3728
X2.7429Y-3.2701
X2.7441Y-3.2276
X2.7472Y-2.8638
X2.7787Y-2.9516
X2.7805Y-3.6063
X2.7819Y-3.313
X2.7921Y-3.3673
X2.8165Y-2.0402
X2.8205Y-3.3244
X2.8205Y-3.3969
X2.8244Y-3.4665
X2.8268Y-2.4894
X2.8358Y-2.8791
X2.8398Y-2.5413
X2.8398Y-2.6433
X2.8457Y-3.1228
X2.8465Y-3.178
X2.8555Y-2.1795
X2.8691Y-4.6654
X2.9165Y-3.1717
X2.9177Y-3.2799
X2.9256Y-4.6831
X2.9319Y-3.0488
X2.9492Y-4.2244
X2.9531Y-2.8354
X2.9567Y-3.1055
X2.9575Y-3.4504
X2.9626Y-2.5992
X2.9634Y-2.9083
X2.9646Y-3.6016
X2.9661Y-2.9654
X2.9661Y-3.5449
X2.9665Y-2.5138
X2.9689Y-2.6819
X2.976Y-4.1157
X2.9803Y-3.6862
X2.9902Y-2.0906
X2.9902Y-2.1496
X2.9902Y-2.2087
X2.9902Y-3.0445
X3.0039Y-2.8051
X3.0098Y-2.8709
X3.0106Y-3.4516
X3.0205Y-3.2827
X3.0252Y-3.1394
X3.026Y-3.5453
X3.0291Y-3.6031
X3.0303Y-3.8575
X3.0311Y-2.6016
X3.0311Y-3.9465
X3.0339Y-4.2232
X3.035Y-2.5126
X3.0382Y-2.9315
X3.0386Y-2.6831
X3.0406Y-3.0051
X3.0445Y-3.0878
X3.0492Y-2.0906
X3.0492Y-2.1496
X3.0492Y-2.2087
X3.0543Y-3.4508
X3.0717Y-2.8823
X3.0776Y-3.6039
X3.0791Y-3.5429
X3.0846Y-2.8157
X3.0961Y-4.1177
X3.0969Y-3.2772
X3.102Y-2.6004
X3.1035Y-2.515
X3.1047Y-2.6831
X3.1083Y-2.0906
X3.1083Y-2.1496
X3.1083Y-2.2087
X3.1083Y-2.9705
X3.1118Y-2.8772
X3.1348Y-3.0315
X3.1673Y-2.0906
X3.1673Y-2.1496
X3.1673Y-2.2087
X3.1843Y-4.1189
X3.1925Y-4.5555
X3.1925Y-4.6146
X3.1925Y-4.6736
X3.2024Y-3.6992
X3.2236Y-2.7165
X3.2258Y-3.7319
X3.2264Y-2.0906
X3.2264Y-2.1496
X3.2264Y-2.2087
X3.2402Y-2.8394
X3.2516Y-4.5555
X3.2516Y-4.6146
X3.2516Y-4.6736
X3.2787Y-3.2346
X3.2787Y-3.2937
X3.2787Y-3.3528
X3.2787Y-3.4063
X3.2787Y-3.4654
X3.2787Y-3.5244
X3.2854Y-2.0906
X3.2854Y-2.1496
X3.2854Y-2.2087
X3.3106Y-4.5555
X3.3106Y-4.6146
X3.3106Y-4.6736
X3.3114Y-4.048
X3.3193Y-3.9295
X3.3268Y-3.0325
X3.3378Y-3.2346
X3.3378Y-3.2937
X3.3378Y-3.3528
X3.3378Y-3.4063
X3.3378Y-3.4654
X3.3378Y-3.5244
X3.3445Y-2.0906
X3.3445Y-2.1496
X3.3445Y-2.2087
X3.3593Y-3.062
X3.3697Y-4.5555
X3.3697Y-4.6146
X3.3697Y-4.6736
X3.3969Y-3.2346
X3.3969Y-3.2937
X3.3969Y-3.3528
X3.3969Y-3.4063
X3.3969Y-3.4654
X3.3969Y-3.5244
X3.4035Y-2.0906
X3.4035Y-2.1496
X3.4035Y-2.2087
X3.4193Y-3.7024
X3.4287Y-4.5555
X3.4287Y-4.6146
X3.4287Y-4.6736
X3.4498Y-3.7323
X3.4559Y-3.2346
X3.4559Y-3.2937
X3.4559Y-3.3528
X3.4559Y-3.4063
X3.4559Y-3.4654
X3.4559Y-3.5244
X3.4587Y-2.7165
X3.461Y-2.8417
X3.4626Y-2.0906
X3.4626Y-2.1496
X3.4626Y-2.2087
X3.4878Y-4.5555
X3.4878Y-4.6146
X3.4878Y-4.6736
X3.515Y-3.2346
X3.515Y-3.2937
X3.515Y-3.3528
X3.515Y-3.4063
X3.515Y-3.4654
X3.515Y-3.5244
X3.5217Y-2.0906
X3.5217Y-2.1496
X3.5217Y-2.2087
X3.5441Y-3.9335
X3.5469Y-4.5555
X3.5469Y-4.6146
X3.5469Y-4.6736
X3.5472Y-3.0325
X3.5535Y-4.048
X3.574Y-3.2346
X3.574Y-3.2937
X3.574Y-3.3528
X3.574Y-3.4063
X3.574Y-3.4654
X3.574Y-3.5244
X3.5797Y-3.062
X3.5807Y-2.0906
X3.5807Y-2.1496
X3.5807Y-2.2087
X3.6059Y-4.5555
X3.6059Y-4.6146
X3.6059Y-4.6736
X3.6331Y-3.2346
X3.6331Y-3.2937
X3.6331Y-3.3528
X3.6331Y-3.4063
X3.6331Y-3.4654
X3.6331Y-3.5244
X3.6398Y-2.0906
X3.6398Y-2.1496
X3.6398Y-2.2087
X3.6476Y-3.7028
X3.665Y-4.5555
X3.665Y-4.6146
X3.665Y-4.6736
X3.6732Y-3.7323
X3.6835Y-2.7205
X3.6909Y-2.8433
X3.6921Y-3.2346
X3.6921Y-3.2937
X3.6921Y-3.3528
X3.6921Y-3.4063
X3.6921Y-3.4654
X3.6921Y-3.5244
X3.6988Y-2.0906
X3.6988Y-2.1496
X3.6988Y-2.2087
X3.724Y-4.5555
X3.724Y-4.6146
X3.724Y-4.6736
X3.7512Y-3.2346
X3.7512Y-3.2937
X3.7512Y-3.3528
X3.7512Y-3.4063
X3.7512Y-3.4654
X3.7512Y-3.5244
X3.7571Y-3.9354
X3.7579Y-2.0906
X3.7579Y-2.1496
X3.7579Y-2.2087
X3.763Y-4.0461
X3.7667Y-3.0325
X3.7831Y-4.5555
X3.7831Y-4.6146
X3.7831Y-4.6736
X3.7972Y-3.062
X3.8102Y-3.2346
X3.8102Y-3.2937
X3.8102Y-3.3528
X3.8102Y-3.4063
X3.8102Y-3.4654
X3.8102Y-3.5244
X3.8169Y-2.0906
X3.8169Y-2.1496
X3.8169Y-2.2087
X3.8421Y-4.5555
X3.8421Y-4.6146
X3.8421Y-4.6736
X3.8671Y-3.7008
X3.8693Y-3.2346
X3.8693Y-3.2937
X3.8693Y-3.3528
X3.8693Y-3.4063
X3.8693Y-3.4654
X3.8693Y-3.5244
X3.876Y-2.0906
X3.876Y-2.1496
X3.876Y-2.2087
X3.8937Y-3.7323
X3.8953Y-2.7154
X3.9012Y-4.5555
X3.9012Y-4.6146
X3.9012Y-4.6736
X3.9016Y-2.8394
X3.9283Y-3.2346
X3.9283Y-3.2937
X3.9283Y-3.3528
X3.9283Y-3.4063
X3.9283Y-3.4654
X3.9283Y-3.5244
X3.935Y-2.0906
X3.935Y-2.1496
X3.935Y-2.2087
X3.9602Y-4.5555
X3.9602Y-4.6146
X3.9602Y-4.6736
X3.9819Y-4.0461
X3.9874Y-3.2346
X3.9874Y-3.2937
X3.9874Y-3.3528
X3.9874Y-3.4063
X3.9874Y-3.4654
X3.9874Y-3.5244
X3.9898Y-3.928
X3.9902Y-3.0325
X3.9941Y-2.0906
X3.9941Y-2.1496
X3.9941Y-2.2087
X4.0193Y-4.5555
X4.0193Y-4.6146
X4.0193Y-4.6736
X4.0197Y-3.062
X4.0465Y-3.2346
X4.0465Y-3.2937
X4.0465Y-3.3528
X4.0465Y-3.4063
X4.0465Y-3.4654
X4.0465Y-3.5244
X4.0531Y-2.0906
X4.0531Y-2.1496
X4.0531Y-2.2087
X4.0783Y-4.5555
X4.0783Y-4.6146
X4.0783Y-4.6736
X4.0896Y-3.7028
X4.1122Y-2.0906
X4.1122Y-2.1496
X4.1122Y-2.2087
X4.1181Y-3.7323
X4.1236Y-2.8417
X4.124Y-2.7177
X4.1374Y-4.5555
X4.1374Y-4.6146
X4.1374Y-4.6736
X4.1713Y-2.0906
X4.1713Y-2.1496
X4.1713Y-2.2087
X4.1965Y-4.5555
X4.1965Y-4.6146
X4.1965Y-4.6736
X4.2047Y-3.9374
X4.2077Y-3.0325
X4.2126Y-4.05
X4.2303Y-2.0906
X4.2303Y-2.1496
X4.2303Y-2.2087
X4.2392Y-3.0846
X4.2555Y-4.5555
X4.2555Y-4.6146
X4.2555Y-4.6736
X4.2831Y-3.1815
X4.2894Y-2.0906
X4.2894Y-2.1496
X4.2894Y-2.2087
X4.2909Y-3.4378
X4.2909Y-3.5012
X4.2909Y-3.5543
X4.3094Y-3.1102
X4.31Y-3.6998
X4.3146Y-4.5555
X4.3146Y-4.6146
X4.3146Y-4.6736
X4.3366Y-3.7323
X4.3409Y-2.8445
X4.3421Y-2.7177
X4.3484Y-2.0906
X4.3484Y-2.1496
X4.3484Y-2.2087
X4.352Y-3.1823
X4.3598Y-3.2374
X4.3669Y-3.1087
X4.3736Y-4.5555
X4.3736Y-4.6146
X4.3736Y-4.6736
X4.4122Y-4.0461
X4.4217Y-3.9413
X4.426Y-3.4157
X4.4262Y-3.4715
X4.4272Y-3.0325
X4.4307Y-3.0929
X4.4327Y-4.5555
X4.4327Y-4.6146
X4.4327Y-4.6736
X4.4331Y-3.1433
X4.438Y-3.5897
X4.4626Y-3.4715
X4.4882Y-3.1083
X4.4917Y-4.5555
X4.4917Y-4.6146
X4.4917Y-4.6736
X4.5045Y-3.5712
X4.5148Y-3.2963
X4.5335Y-3.6988
X4.5374Y-3.5699
X4.5404Y-3.3189
X4.5465Y-3.0772
X4.5508Y-4.5555
X4.5508Y-4.6146
X4.5508Y-4.6736
X4.5551Y-2.0961
X4.5551Y-2.1551
X4.5551Y-2.2142
X4.562Y-3.7323
X4.565Y-3.2963
X4.5657Y-2.7177
X4.5703Y-3.572
X4.5744Y-2.8484
X4.5819Y-3.4354
X4.5906Y-3.3169
X4.6098Y-4.5555
X4.6098Y-4.6146
X4.6098Y-4.6736
X4.6114Y-3.0756
X4.6142Y-2.0961
X4.6142Y-2.1551
X4.6142Y-2.2142
X4.6161Y-3.2943
X4.6359Y-3.5848
X4.6398Y-3.3219
X4.6437Y-3.4122
X4.6445Y-4.0535
X4.6506Y-3.0325
X4.6583Y-3.9492
X4.6673Y-3.5837
X4.672Y-3.3701
X4.6732Y-2.0961
X4.6732Y-2.1551
X4.6732Y-2.2142
X4.6791Y-3.062
X4.7018Y-3.5897
X4.7134Y-3.3555
X4.7264Y-3.4071
X4.7323Y-2.0961
X4.7323Y-2.1551
X4.7323Y-2.2142
X4.7736Y-3.7323
X4.7787Y-2.7154
X4.7874Y-3.2352
X4.7913Y-2.0961
X4.7913Y-2.1551
X4.7913Y-2.2142
X4.7917Y-2.8496
X4.7961Y-3.3673
X4.8008Y-3.415
X4.8504Y-2.0961
X4.8504Y-2.1551
X4.8504Y-2.2142
X4.8711Y-3.0325
X4.8713Y-3.4165
X4.8713Y-3.9531
X4.8713Y-4.0441
X4.8736Y-3.3634
X4.9026Y-3.062
X4.9094Y-2.0961
X4.9094Y-2.1551
X4.9094Y-2.2142
X4.9114Y-4.5594
X4.9114Y-4.6185
X4.9114Y-4.6776
X4.9157Y-3.3665
X4.9201Y-3.4142
X4.9685Y-2.0961
X4.9685Y-2.1551
X4.9685Y-2.2142
X4.9705Y-4.5594
X4.9705Y-4.6185
X4.9705Y-4.6776
X4.9823Y-3.4518
X4.9969Y-2.8366
X4.997Y-3.7313
X5.0059Y-3.4272
X5.0069Y-3.1722
X5.0087Y-2.7268
X5.0276Y-2.0961
X5.0276Y-2.1551
X5.0276Y-2.2142
X5.0295Y-4.5594
X5.0295Y-4.6185
X5.0295Y-4.6776
X5.0325Y-3.1496
X5.0325Y-3.4508
X5.0591Y-3.1752
X5.0591Y-3.4262
X5.0689Y-3.9453
X5.0837Y-3.1486
X5.0837Y-3.4518
X5.0862Y-4.05
X5.0866Y-2.0961
X5.0866Y-2.1551
X5.0866Y-2.2142
X5.0886Y-4.5594
X5.0886Y-4.6185
X5.0886Y-4.6776
X5.0906Y-3.0325
X5.1093Y-3.1772
X5.1102Y-3.429
X5.1191Y-3.062
X5.1348Y-3.1476
X5.1348Y-3.4518
X5.1457Y-2.0961
X5.1457Y-2.1551
X5.1457Y-2.2142
X5.1476Y-4.5594
X5.1476Y-4.6185
X5.1476Y-4.6776
X5.1604Y-3.1791
X5.2047Y-2.0961
X5.2047Y-2.1551
X5.2047Y-2.2142
X5.2067Y-4.5594
X5.2067Y-4.6185
X5.2067Y-4.6776
X5.2165Y-3.7313
X5.2244Y-2.7205
X5.2295Y-2.8445
X5.2372Y-3.2953
X5.2441Y-3.4605
X5.2598Y-2.062
X5.2657Y-4.5594
X5.2657Y-4.6185
X5.2657Y-4.6776
X5.2878Y-3.9531
X5.2884Y-3.4616
X5.3091Y-4.052
X5.314Y-3.0325
X5.3248Y-4.5594
X5.3248Y-4.6185
X5.3248Y-4.6776
X5.3415Y-3.062
X5.3839Y-4.5594
X5.3839Y-4.6185
X5.3839Y-4.6776
X5.3854Y-3.5217
X5.3886Y-1.9669
X5.3976Y-2.726
X5.4012Y-2.8366
X5.4057Y-3.0667
X5.4106Y-3.3744
X5.4185Y-3.2795
X5.4205Y-3.1941
X5.4301Y-3.0965
X5.4301Y-3.1309
X5.4303Y-3.4575
X5.435Y-3.7313
X5.44Y-3.0325
X5.4429Y-4.5594
X5.4429Y-4.6185
X5.4429Y-4.6776
X5.4508Y-2.0122
X5.4748Y-3.5295
X5.4787Y-3.4614
X5.502Y-4.5594
X5.502Y-4.6185
X5.502Y-4.6776
X5.5069Y-2.062
X5.5244Y-3.9492
X5.5291Y-3.5118
X5.5335Y-3.0315
X5.5378Y-4.052
X5.5484Y-3.2
X5.5484Y-3.3181
X5.561Y-4.5594
X5.561Y-4.6185
X5.561Y-4.6776
X5.6059Y-2.1201
X5.6201Y-4.5594
X5.6201Y-4.6185
X5.6201Y-4.6776
X5.6299Y-3.1969
X5.65Y-3.4961
X5.6531Y-2.8343
X5.6545Y-2.1752
X5.6583Y-2.7244
X5.6594Y-3.7313
X5.6791Y-4.5594
X5.6791Y-4.6185
X5.6791Y-4.6776
X5.7091Y-3.4949
X5.7339Y-2.1201
X5.7382Y-4.5594
X5.7382Y-4.6185
X5.7382Y-4.6776
X5.749Y-3.0325
X5.7579Y-3.2018
X5.7606Y-3.9547
X5.7606Y-4.048
X5.7972Y-4.5594
X5.7972Y-4.6185
X5.7972Y-4.6776
X5.8445Y-2.1801
X5.8494Y-3.1998
X5.8563Y-4.5594
X5.8563Y-4.6185
X5.8563Y-4.6776
X5.877Y-3.7313
X5.887Y-2.8343
X5.8984Y-2.7256
X5.9154Y-4.5594
X5.9154Y-4.6185
X5.9154Y-4.6776
X5.9177Y-3.1965
X5.9248Y-2.1177
X5.9681Y-4.048
X5.974Y-3.9547
X5.9744Y-3.0325
X5.9744Y-4.5594
X5.9744Y-4.6185
X5.9744Y-4.6776
X6.0063Y-2.1717
X6.0335Y-4.5594
X6.0335Y-4.6185
X6.0335Y-4.6776
X6.0346Y-2.1331
X6.0925Y-4.5594
X6.0925Y-4.6185
X6.0925Y-4.6776
X6.0949Y-2.7283
X6.0957Y-3.5102
X6.0994Y-3.7313
X6.1079Y-2.8417
X6.1081Y-3.2814
X6.1106Y-3.4543
X6.1516Y-4.5594
X6.1516Y-4.6185
X6.1516Y-4.6776
X6.189Y-3.2642
X6.1909Y-3.1945
X6.1929Y-3.9626
X6.1949Y-4.052
X6.1959Y-3.0325
X6.2106Y-4.5594
X6.2106Y-4.6185
X6.2106Y-4.6776
X6.2457Y-2.9736
X6.2472Y-2.8335
X6.2697Y-4.5594
X6.2697Y-4.6185
X6.2697Y-4.6776
X6.2744Y-3.4436
X6.2764Y-2.898
X6.2882Y-3.1559
X6.2996Y-3.4642
X6.3199Y-3.7313
X6.3248Y-3.2982
X6.3248Y-3.4436
X6.3287Y-4.5594
X6.3287Y-4.6185
X6.3287Y-4.6776
X6.3508Y-3.4622
X6.3514Y-3.3287
X6.3762Y-3.4436
X6.377Y-3.3012
X6.3882Y-3.1299
X6.3886Y-2.6016
X6.3898Y-2.5213
X6.3913Y-2.45
X6.3961Y-3.9531
X6.4035Y-3.3307
X6.4042Y-3.458
X6.411Y-2.0472
X6.411Y-2.1063
X6.411Y-2.1654
X6.4138Y-4.0441
X6.4281Y-3.3012
X6.4305Y-3.4407
X6.4461Y-2.6593
X6.4547Y-3.3327
X6.4547Y-3.6512
X6.4701Y-2.0472
X6.4701Y-2.1063
X6.4701Y-2.1654
X6.4803Y-3.3022
X6.4886Y-3.628
X6.5028Y-3.3846
X6.5035Y-3.4256
X6.526Y-4.5913
X6.526Y-4.6504
X6.526Y-4.7094
X6.5291Y-2.0472
X6.5291Y-2.1063
X6.5291Y-2.1654
X6.5374Y-3.7303
X6.5413Y-3.3228
X6.551Y-2.9234
X6.5571Y-3.5807
X6.5622Y-3.3551
X6.585Y-4.5913
X6.585Y-4.6504
X6.585Y-4.7094
X6.5882Y-2.0472
X6.5882Y-2.1063
X6.5882Y-2.1654
X6.6154Y-3.3098
X6.6169Y-3.9512
X6.6319Y-3.3563
X6.6386Y-4.0402
X6.6441Y-4.5913
X6.6441Y-4.6504
X6.6441Y-4.7094
X6.6472Y-2.0472
X6.6472Y-2.1063
X6.6472Y-2.1654
X6.6768Y-3.0453
X6.7031Y-4.5913
X6.7031Y-4.6504
X6.7031Y-4.7094
X6.7063Y-2.0472
X6.7063Y-2.1063
X6.7063Y-2.1654
X6.7087Y-2.8862
X6.7106Y-2.9583
X6.7142Y-2.6589
X6.7181Y-3.3394
X6.7181Y-3.4142
X6.7224Y-3.2116
X6.7534Y-2.7573
X6.7543Y-2.7888
X6.7559Y-3.0402
X6.7569Y-3.7303
X6.7571Y-3.3398
X6.7614Y-3.4154
X6.7622Y-4.5913
X6.7622Y-4.6504
X6.7622Y-4.7094
X6.7654Y-2.0472
X6.7654Y-2.1063
X6.7654Y-2.1654
X6.7764Y-2.9614
X6.7933Y-2.5516
X6.7941Y-2.885
X6.8161Y-2.6098
X6.8197Y-3.6354
X6.8213Y-4.5913
X6.8213Y-4.6504
X6.8213Y-4.7094
X6.8244Y-2.0472
X6.8244Y-2.1063
X6.8244Y-2.1654
X6.8319Y-2.837
X6.8366Y-3.3307
X6.8421Y-2.8965
X6.8443Y-3.0621
X6.8472Y-3.4413
X6.8476Y-3.9453
X6.852Y-3.6366
X6.8535Y-4.0421
X6.8614Y-2.9872
X6.8703Y-3.0799
X6.8776Y-3.3846
X6.8803Y-4.5913
X6.8803Y-4.6504
X6.8803Y-4.7094
X6.8834Y-3.6369
X6.8835Y-2.0472
X6.8835Y-2.1063
X6.8835Y-2.1654
X6.8839Y-2.5484
X6.885Y-2.6441
X6.8957Y-3.0984
X6.9098Y-2.4815
X6.9213Y-3.1197
X6.9217Y-3.5913
X6.9228Y-3.6272
X6.9354Y-3.4138
X6.9394Y-4.5913
X6.9394Y-4.6504
X6.9394Y-4.7094
X6.9425Y-2.0472
X6.9425Y-2.1063
X6.9425Y-2.1654
X6.9437Y-3.3409
X6.947Y-3.1379
X6.9535Y-3.6153
X6.961Y-2.5543
X6.9654Y-2.6398
X6.9728Y-3.1559
X6.9754Y-3.7303
X6.9772Y-3.5921
X6.9807Y-3.4425
X6.9894Y-2.4618
X6.998Y-3.176
X6.9984Y-4.5913
X6.9984Y-4.6504
X6.9984Y-4.7094
X7.0012Y-3.0622
X7.0016Y-2.0472
X7.0016Y-2.1063
X7.0016Y-2.1654
X7.0256Y-2.5484
X7.039Y-3.602
X7.0563Y-3.4425
X7.0575Y-4.5913
X7.0575Y-4.6504
X7.0575Y-4.7094
X7.0606Y-2.0472
X7.0606Y-2.1063
X7.0606Y-2.1654
X7.0626Y-4.0421
X7.0701Y-3.1319
X7.0748Y-3.2933
X7.0803Y-3.9512
X7.0878Y-3.4197
X7.1012Y-3.5776
X7.1035Y-3.0583
X7.1165Y-4.5913
X7.1165Y-4.6504
X7.1165Y-4.7094
X7.1197Y-2.0472
X7.1197Y-2.1063
X7.1197Y-2.1654
X7.1264Y-3.4634
X7.1382Y-3.3925
X7.1602Y-3.5969
X7.1756Y-4.5913
X7.1756Y-4.6504
X7.1756Y-4.7094
X7.1787Y-2.0472
X7.1787Y-2.1063
X7.1787Y-2.1654
X7.1807Y-2.598
X7.1874Y-3.35
X7.1959Y-3.7303
X7.2004Y-3.5437
X7.202Y-2.5264
X7.2055Y-3.5953
X7.2134Y-3.4791
X7.2228Y-2.6642
X7.226Y-3.2969
X7.2299Y-3.2441
X7.2311Y-2.9768
X7.2323Y-2.9146
X7.2343Y-2.852
X7.2346Y-4.5913
X7.2346Y-4.6504
X7.2346Y-4.7094
X7.2358Y-3.1142
X7.2378Y-2.0472
X7.2378Y-2.1063
X7.2378Y-2.1654
X7.2508Y-3.5736
X7.2598Y-3.5232
X7.265Y-3.4587
X7.2654Y-2.6012
X7.2795Y-3.174
X7.285Y-3.2157
X7.2921Y-2.9154
X7.2929Y-2.976
X7.2937Y-4.5913
X7.2937Y-4.6504
X7.2937Y-4.7094
X7.2949Y-2.8524
X7.2969Y-2.0472
X7.2969Y-2.1063
X7.2969Y-2.1654
X7.3012Y-3.9567
X7.3012Y-4.0362
X7.3063Y-2.5287
X7.3079Y-2.4531
X7.3142Y-2.6642
X7.3248Y-3.5657
X7.3358Y-3.4063
X7.3382Y-3.1134
X7.3417Y-3.4988
X7.3445Y-3.2201
X7.3496Y-3.3433
X7.3528Y-4.5913
X7.3528Y-4.6504
X7.3528Y-4.7094
X7.3531Y-2.5972
X7.3543Y-2.8512
X7.3543Y-2.9173
X7.3551Y-2.9768
X7.3559Y-2.0472
X7.3559Y-2.1063
X7.3559Y-2.1654
X7.3937Y-2.6654
X7.3937Y-3.1677
X7.3953Y-2.4539
X7.3957Y-2.5276
X7.4071Y-3.5059
X7.4087Y-3.3957
X7.4118Y-4.5913
X7.4118Y-4.6504
X7.4118Y-4.7094
X7.415Y-2.0472
X7.415Y-2.1063
X7.415Y-2.1654
X7.4163Y-3.7303
X7.4185Y-2.976
X7.4335Y-2.5972
X7.4346Y-3.2232
X7.4531Y-3.1059
X7.4709Y-4.5913
X7.4709Y-4.6504
X7.4709Y-4.7094
X7.474Y-2.0472
X7.474Y-2.1063
X7.474Y-2.1654
X7.4752Y-2.6677
X7.4941Y-3.1602
X7.5201Y-3.9626
X7.5201Y-4.052
X7.5299Y-4.5913
X7.5299Y-4.6504
X7.5299Y-4.7094
X7.5311Y-3.1988
X7.5331Y-2.0472
X7.5331Y-2.1063
X7.5331Y-2.1654
X7.539Y-2.9291
X7.5472Y-3.3646
X7.5492Y-3.4063
X7.565Y-2.6685
X7.5819Y-3.0602
X7.5843Y-3.0024
X7.589Y-4.5913
X7.589Y-4.6504
X7.589Y-4.7094
X7.5921Y-2.0472
X7.5921Y-2.1063
X7.5921Y-2.1654
X7.6067Y-2.5232
X7.6071Y-3.5559
X7.6079Y-3.415
X7.6169Y-3.1917
X7.6368Y-3.3668
X7.6417Y-3.7313
X7.648Y-4.5913
X7.648Y-4.6504
X7.648Y-4.7094
X7.6512Y-2.0472
X7.6512Y-2.1063
X7.6531Y-2.9303
X7.6579Y-3.3386
X7.6606Y-3.1154
X7.6823Y-2.9941
X7.6854Y-3.1835
X7.6945Y-2.6654
X7.7071Y-4.5913
X7.7071Y-4.6504
X7.7071Y-4.7094
X7.7098Y-2.5689
X7.71Y-3.68
X7.7291Y-3.9512
X7.7358Y-3.4138
X7.737Y-4.048
X7.7492Y-3.1142
X7.75Y-3.63
X7.7547Y-2.9248
X7.7661Y-4.5913
X7.7661Y-4.6504
X7.7661Y-4.7094
X7.787Y-3.1815
X7.7965Y-2.9992
X7.8094Y-2.6685
X7.81Y-3.67
X7.8165Y-3.1142
X7.8252Y-4.5913
X7.8252Y-4.6504
X7.8252Y-4.7094
X7.8571Y-2.9209
X7.8614Y-2.789
X7.8622Y-2.8622
X7.8843Y-4.5913
X7.8843Y-4.6504
X7.8843Y-4.7094
X7.8886Y-2.989
X7.89Y-3.63
X7.9Y-3.68
X7.9035Y-3.2921
X7.9083Y-4.2244
X7.9087Y-4.1571
X7.9091Y-4.0949
X7.9323Y-4.0602
X7.9374Y-3.176
X7.9382Y-2.7677
X7.9433Y-4.5913
X7.9433Y-4.6504
X7.9433Y-4.7094
X7.9677Y-3.9087
X7.9728Y-4.3004
X7.9811Y-2.8173
X7.9949Y-3.7862
X7.9976Y-3.8303
X8.0039Y-3.0961
X8.0075Y-2.2913
X8.0075Y-2.376
X8.0268Y-2.6591
X8.0386Y-3.328
X8.0417Y-3.8457
X8.0421Y-3.487
X8.0425Y-4.285
X8.0429Y-3.5771
X8.0496Y-3.2567
X8.0543Y-2.8169
X8.0559Y-4.7346
X8.0579Y-4.6047
X8.0598Y-4.4031
X8.0598Y-4.4866
X8.0673Y-2.9638
X8.07Y-3.67
X8.0837Y-3.2923
X8.0846Y-3.4508
X8.1004Y-4.3858
X8.1102Y-4.4961
X8.1134Y-2.9433
X8.1134Y-2.9988
X8.1161Y-4.0622
X8.1236Y-4.6937
X8.1335Y-4.5894
X8.14Y-3.72
X8.1433Y-3.9185
X8.1624Y-2.8907
X8.1654Y-3.2563
X8.2037Y-4.501
X8.2177Y-3.2559
X8.22Y-3.67
X8.22Y-3.79
X8.2246Y-2.8927
X8.2398Y-2.5843
X8.2429Y-2.6378
X8.2486Y-3.8813
X8.2535Y-3.0303
X8.2909Y-2.7906
X8.2913Y-3.7394
X8.2984Y-3.0311
X8.2988Y-2.1933
X8.3142Y-3.0819
X8.3453Y-3.4035
X8.3498Y-2.0109
X8.3498Y-2.07
X8.3622Y-3.024
X8.37Y-3.67
X8.37Y-3.79
X8.37Y-3.93
X8.3839Y-2.7913
X8.4071Y-4.4768
X8.4089Y-2.0109
X8.4089Y-2.07
X8.411Y-3.3803
X8.4169Y-3.0008
X8.4173Y-2.6776
X8.4213Y-3.9854
X8.422Y-2.8909
X8.4354Y-2.8114
X8.4394Y-3.2118
X8.44Y-3.73
X8.45Y-3.93
X8.4624Y-4.3994
X8.463Y-3.3811
X8.468Y-2.0109
X8.468Y-2.07
X8.4803Y-2.7346
X8.4866Y-3.1016
X8.5224Y-4.5007
X8.5244Y-3.3811
X8.527Y-2.0109
X8.527Y-2.07
X8.5315Y-3.0992
X8.5465Y-2.6598
X8.5484Y-4.1012
X8.55Y-3.67
X8.55Y-3.79
X8.5791Y-2.6874
X8.5823Y-2.6339
X8.586Y-2.8411
X8.5861Y-2.0109
X8.5861Y-2.07
X8.6024Y-3.3807
X8.61Y-3.73
X8.615Y-3.974
X8.6154Y-4.0528
X8.6244Y-2.9165
X8.6323Y-3.0618
X8.6362Y-2.7362
X8.6451Y-2.0109
X8.6451Y-2.07
X8.6496Y-2.8539
X8.6665Y-2.9957
X8.6677Y-3.3394
X8.68Y-3.67
X8.6803Y-3.2118
X8.6807Y-3.4268
X8.6823Y-4.1004
X8.7037Y-4.5157
X8.7042Y-2.0109
X8.7042Y-2.07
X8.7067Y-4.3012
X8.7071Y-4.665
X8.71Y-3.79
X8.7264Y-4.5949
X8.7457Y-4.7539
X8.7632Y-2.0109
X8.7632Y-2.07
X8.7641Y-3.9886
X8.7717Y-4.3012
X8.7886Y-3.6248
X8.79Y-4.12
X8.7902Y-4.5835
X8.798Y-4.5193
X8.8118Y-2.8138
X8.8118Y-2.9035
X8.8142Y-3.0988
X8.8165Y-3.0024
X8.82Y-3.9031
X8.8223Y-2.0109
X8.8223Y-2.07
X8.8244Y-3.4539
X8.8252Y-4.3256
X8.8291Y-4.3937
X8.8378Y-3.6685
X8.8406Y-4.748
X8.8425Y-4.25
X8.8465Y-4.6823
X8.8602Y-4.1902
X8.8813Y-2.0109
X8.8813Y-2.07
X8.8949Y-4.3898
X8.9067Y-4.1882
X8.9087Y-4.2949
X8.9181Y-4.5677
X8.92Y-4.12
X8.9201Y-4.5272
X8.9319Y-4.2406
X8.9404Y-2.0109
X8.9404Y-2.07
X8.9665Y-4.6764
X8.9783Y-4.4626
X8.9793Y-4.373
X8.9823Y-4.7654
X8.9846Y-2.7728
X8.9874Y-2.4827
X8.9917Y-3.4717
X8.9994Y-2.0109
X8.9994Y-2.07
X9.0193Y-2.8051
X9.0213Y-3.3051
X9.0228Y-3.7299
X9.0272Y-3.5602
X9.0488Y-3.5134
X9.052Y-3.2614
X9.0528Y-2.8323
X9.0585Y-2.0109
X9.0585Y-2.07
X9.0744Y-2.8689
X9.0835Y-2.4819
X9.0894Y-2.9232
X9.0953Y-3.5114
X9.1016Y-3.2779
X9.1154Y-3.1843
X9.1165Y-2.9898
X9.1176Y-2.0109
X9.1176Y-2.07
X9.122Y-3.5748
X9.1244Y-3.9394
X9.1394Y-3.0638
X9.1614Y-2.7701
X9.1744Y-3.7937
X9.1766Y-2.0109
X9.1766Y-2.07
X9.1791Y-3.2669
X9.1839Y-3.9398
X9.1961Y-3.1949
X9.2055Y-2.7287
X9.2201Y-3.0902
X9.2201Y-3.6177
X9.2357Y-2.0109
X9.2357Y-2.07
X9.2449Y-3.9402
X9.2484Y-3.1937
X9.2531Y-3.7937
X9.2705Y-3.7268
X9.2744Y-2.4815
X9.2947Y-2.0109
X9.2947Y-2.07
X9.3185Y-2.976
X9.339Y-3.3441
X9.3538Y-2.0109
X9.3538Y-2.07
X9.3713Y-2.4807
X9.3917Y-3.2539
X9.3925Y-3.3083
X9.3945Y-3.2071
X9.406Y-2.8562
X9.4094Y-2.8996
X9.4128Y-2.0109
X9.4128Y-2.07
X9.426Y-2.8319
X9.4319Y-3.0772
X9.4622Y-3.0126
X9.4719Y-2.0109
X9.4719Y-2.07
X9.4752Y-3.5484
X9.5051Y-2.9713
X9.522Y-3.3142
X9.5309Y-2.0109
X9.5309Y-2.07
X9.5516Y-3.013
X9.5602Y-2.4831
X9.5673Y-3.7965
X9.58Y-2.72
X9.5835Y-2.9693
X9.59Y-2.0109
X9.59Y-2.07
X9.59Y-2.77
X9.5992Y-2.9197
X9.5996Y-3.0933
X9.61Y-2.66
X9.62Y-3.29
X9.62Y-3.48
X9.62Y-3.64
X9.63Y-3.53
X9.64Y-2.71
X9.6429Y-3.7961
X9.6445Y-3.8591
X9.6563Y-2.4803
X9.6862Y-2.7465
X9.69Y-3.48
X9.69Y-3.53
X9.6949Y-3.2638
X9.6965Y-3.172
X9.6969Y-3.0252
X9.6984Y-3.0756
X9.7Y-2.66
X9.7Y-3.63
X9.7047Y-2.9531
X9.71Y-3.73
X9.73Y-3.84
X9.7453Y-4.1291
X9.7465Y-4.0181
X9.7465Y-4.0669
X9.7472Y-4.6772
X9.7504Y-4.4398
X9.7524Y-4.2272
X9.7539Y-4.3094
X9.7551Y-4.5457
X9.7571Y-4.7945
X9.787Y-1.9941
X9.7984Y-2.2976
X9.8047Y-4.2287
X9.8055Y-4.1193
X9.8087Y-4.3752
X9.8126Y-2.1685
X9.8142Y-4.5945
X9.8165Y-4.4831
X9.8201Y-4.7547
X9.8366Y-2.4213
T2
X2.3937Y-3.5551
X2.8965Y-2.1114
T3
X9.1831Y-2.9957
X9.2579Y-2.9957
T5
X8.9213Y-2.8224
X8.9213Y-2.9224
X8.9213Y-3.0224
X8.9213Y-3.1224
X8.9213Y-3.2224
X8.9213Y-3.3224
X8.9213Y-3.4224
X8.9213Y-3.5224
X8.9213Y-3.6224
X8.9213Y-3.7224
X8.9213Y-3.8224
X8.9213Y-3.9224
X8.9213Y-4.0224
X9.8213Y-2.8224
X9.8213Y-2.9224
X9.8213Y-3.0224
X9.8213Y-3.1224
X9.8213Y-3.2224
X9.8213Y-3.3224
X9.8213Y-3.4224
X9.8213Y-3.5224
X9.8213Y-3.6224
X9.8213Y-3.7224
X9.8213Y-3.8224
X9.8213Y-3.9224
X9.8213Y-4.0224
T6
X2.2157Y-2.0693
X2.2157Y-2.3693
X2.3157Y-2.0693
X2.3157Y-2.3693
X2.4157Y-2.0693
X2.4157Y-2.3693
X2.5157Y-2.0693
X2.5157Y-2.3693
X9.1742Y-3.876
X9.253Y-3.876
X9.3317Y-3.876
X9.4104Y-3.876
X9.4892Y-3.876
X9.5679Y-3.876
T7
X2.5913Y-2.7839
X2.747Y-4.438
X2.747Y-4.638
X2.7882Y-2.7839
T8
X5.6594Y-3.3217
X5.6594Y-3.4217
X5.7594Y-3.3217
X5.7594Y-3.4217
X5.8594Y-3.3217
X5.8594Y-3.4217
X5.9594Y-3.3217
X5.9594Y-3.4217
X7.4768Y-2.8335
X7.5768Y-2.8335
X7.6768Y-2.8335
X7.7768Y-2.8335
T9
X8.4945Y-3.2945
X8.4945Y-3.4717
X8.7504Y-3.2945
X8.7504Y-3.4717
T10
X2.2736Y-4.4402
X2.4705Y-4.4402
X3.0783Y-4.4421
X3.089Y-2.3272
X3.2752Y-4.4421
X3.2858Y-2.3272
X3.472Y-4.4421
X3.4827Y-2.3272
X3.6689Y-4.4421
X3.6795Y-2.3272
X3.8657Y-4.4421
X3.8764Y-2.3272
X4.0626Y-4.4421
X4.0732Y-2.3272
X4.2594Y-4.4421
X4.2701Y-2.3272
X4.4563Y-4.4421
X4.4669Y-2.3272
X4.7713Y-4.4421
X4.7803Y-2.3276
X4.9681Y-4.4421
X4.9772Y-2.3276
X5.165Y-4.4421
X5.174Y-2.3276
X5.3618Y-4.4421
X5.3709Y-2.3276
X5.5587Y-4.4421
X5.5677Y-2.3276
X5.7555Y-4.4421
X5.7646Y-2.3276
X5.9524Y-4.4421
X5.9614Y-2.3276
X6.1492Y-4.4421
X6.1583Y-2.3276
X6.4642Y-4.4421
X6.4732Y-2.3276
X6.661Y-4.4421
X6.6701Y-2.3276
X6.8579Y-4.4421
X6.8669Y-2.3276
X7.0547Y-4.4421
X7.0638Y-2.3276
X7.2516Y-4.4421
X7.2606Y-2.3276
X7.4484Y-4.4421
X7.4575Y-2.3276
X7.6453Y-4.4421
X7.6543Y-2.3276
X7.8421Y-4.4421
X7.8512Y-2.3276
X8.1661Y-2.328
X8.363Y-2.328
X8.5598Y-2.328
X8.7567Y-2.328
X8.9535Y-2.328
X9.1504Y-2.328
X9.3472Y-2.328
X9.5441Y-2.328
T4
G00X8.2787Y-4.5598
M15
G01X8.2787Y-4.6031
M16
G05
G00X8.2787Y-4.7343
M15
G01X8.2787Y-4.7579
M16
G05
G00X8.6189Y-4.5598
M15
G01X8.6189Y-4.6031
M16
G05
G00X8.6189Y-4.7343
M15
G01X8.6189Y-4.7579
M16
G05
T0
M30
